<svg width="907" height="900" viewBox="0 0 907 900" fill="none" xmlns="http://www.w3.org/2000/svg">
<path d="M472 166H434.5L434 255.5C445.6 252.3 464.167 254.167 472 255.5V166Z" fill="white"/>
<path d="M498.002 340.5L483.502 355V408L498.002 421.5C503.602 426.7 504.669 423 504.502 420.5V344.5C504.102 337.7 500.002 339 498.002 340.5Z" fill="white"/>
<path d="M409.018 340.5L423.518 355V408L409.018 421.5C403.418 426.7 402.351 423 402.518 420.5V344.5C402.918 337.7 407.018 339 409.018 340.5Z" fill="white"/>
<path d="M491.385 333.511L477.881 348L428.522 348L415.95 333.511C411.107 327.915 414.553 326.849 416.881 327.016L487.659 327.016C493.992 327.416 492.782 331.513 491.385 333.511Z" fill="white"/>
<path d="M498 569.628L483.5 555.128V502.129L498 488.629C503.6 483.429 504.667 487.129 504.5 489.629V565.628C504.1 572.428 500 571.128 498 569.628Z" fill="white"/>
<path d="M409.016 569.628L423.516 555.128V502.129L409.016 488.629C403.416 483.429 402.349 487.129 402.516 489.629V565.628C402.916 572.428 407.016 571.128 409.016 569.628Z" fill="white"/>
<path d="M491.383 576.618L477.879 562.129L428.52 562.129L415.948 576.618C411.105 582.214 414.551 583.279 416.879 583.113L487.658 583.113C493.99 582.713 492.78 578.616 491.383 576.618Z" fill="white"/>
<path d="M472.5 656H434V697H349V733.5H558V697H472.5V656Z" fill="white"/>
<path d="M571.5 559.5C575.9 535.5 569.667 502.5 566 489H680.5C670.1 550.6 603.5 561.667 571.5 559.5Z" fill="white"/>
<path d="M336 559.5C331.6 535.5 337.833 502.5 341.5 489H227C237.4 550.6 304 561.667 336 559.5Z" fill="white"/>
<path d="M572.5 380C574.9 363.6 569.167 334.5 566 322H594.5L679 475.5L654.5 474.5L586 353C585.2 358.2 576.667 373.167 572.5 380Z" fill="white"/>
<path d="M334.5 380C332.1 363.6 337.833 334.5 341 322H312.5L228 475.5L252.5 474.5L321 353C321.8 358.2 330.333 373.167 334.5 380Z" fill="white"/>
<path d="M536.001 442.001C528.801 435.201 515.667 430.501 510.001 429.001L507.5 426.5C519.9 417.34 521.333 382.683 520.5 366.5C520.5 300.329 470 303.5 466.5 303.5C444.1 301.5 420.5 308 411.5 311.5C389.5 320.5 380 364 385.5 397C389.9 423.4 410 434.667 419.5 437H483.5C515.1 438.6 537 461 544 472C565.6 502.8 560.333 556.833 555 580C541 636.4 477.5 646.167 447.5 644C402.7 644.4 376.5 622.833 369 612C327.8 547.6 352.833 488.5 370.5 467C381.5 476.5 397 481 400.5 484C388.1 498 385.333 532.167 385.5 547.5C386.7 583.5 411.333 599.167 423.5 602.5C433.5 605.3 465 605 479.5 604.5C530 589 520.5 527 520.5 524C518.1 486.8 494.833 473.833 483.5 472H417.501C337.501 458.8 341.167 371.501 353.001 329.501C373.001 263.101 448.001 261.834 483.001 269.501C556.201 279.901 564.834 354.168 560.001 390.001C554.401 423.601 541.667 438.668 536.001 442.001Z" fill="white"/>
</svg>
