<svg width="1720" height="850" viewBox="0 0 1720 850" fill="none" xmlns="http://www.w3.org/2000/svg">
<g clip-path="url(#clip0_791_278)">
<g filter="url(#filter0_d_791_278)">
<g filter="url(#filter1_d_791_278)">
<path d="M372 120H334.5L334 209.5C345.6 206.3 364.167 208.167 372 209.5V120Z" fill="url(#paint0_linear_791_278)"/>
</g>
<path d="M398.002 294.5L383.502 309V362L398.002 375.5C403.602 380.7 404.669 377 404.502 374.5V298.5C404.102 291.7 400.002 293 398.002 294.5Z" fill="url(#paint1_linear_791_278)"/>
<path d="M309.018 294.5L323.518 309V362L309.018 375.5C303.418 380.7 302.351 377 302.518 374.5V298.5C302.918 291.7 307.018 293 309.018 294.5Z" fill="url(#paint2_linear_791_278)"/>
<path d="M391.385 287.511L377.881 302L328.522 302L315.95 287.511C311.107 281.915 314.553 280.849 316.881 281.016L387.659 281.016C393.992 281.416 392.782 285.513 391.385 287.511Z" fill="url(#paint3_linear_791_278)"/>
<path d="M398 523.628L383.5 509.128V456.129L398 442.629C403.6 437.429 404.667 441.129 404.5 443.629V519.628C404.1 526.428 400 525.128 398 523.628Z" fill="url(#paint4_linear_791_278)"/>
<path d="M309.016 523.628L323.516 509.128V456.129L309.016 442.629C303.416 437.429 302.349 441.129 302.516 443.629V519.628C302.916 526.428 307.016 525.128 309.016 523.628Z" fill="url(#paint5_linear_791_278)"/>
<path d="M391.383 530.618L377.879 516.129L328.52 516.129L315.948 530.618C311.105 536.214 314.551 537.279 316.879 537.113L387.658 537.113C393.99 536.713 392.78 532.616 391.383 530.618Z" fill="url(#paint6_linear_791_278)"/>
<path d="M372.5 610H334V651H249V687.5H458V651H372.5V610Z" fill="url(#paint7_linear_791_278)"/>
<path d="M471.5 513.5C475.9 489.5 469.667 456.5 466 443H580.5C570.1 504.6 503.5 515.667 471.5 513.5Z" fill="url(#paint8_linear_791_278)"/>
<path d="M236 513.5C231.6 489.5 237.833 456.5 241.5 443H127C137.4 504.6 204 515.667 236 513.5Z" fill="url(#paint9_linear_791_278)"/>
<path d="M472.5 334C474.9 317.6 469.167 288.5 466 276H494.5L579 429.5L554.5 428.5L486 307C485.2 312.2 476.667 327.167 472.5 334Z" fill="url(#paint10_linear_791_278)"/>
<path d="M234.5 334C232.1 317.6 237.833 288.5 241 276H212.5L128 429.5L152.5 428.5L221 307C221.8 312.2 230.333 327.167 234.5 334Z" fill="url(#paint11_linear_791_278)"/>
<path d="M436.001 396.001C428.801 389.201 415.667 384.501 410.001 383.001L407.5 380.5C419.9 371.34 421.333 336.683 420.5 320.5C420.5 254.329 370 257.5 366.5 257.5C344.1 255.5 320.5 262 311.5 265.5C289.5 274.5 280 318 285.5 351C289.9 377.4 310 388.667 319.5 391H383.5C415.1 392.6 437 415 444 426C465.6 456.8 460.333 510.833 455 534C441 590.4 377.5 600.167 347.5 598C302.7 598.4 276.5 576.833 269 566C227.8 501.6 252.833 442.5 270.5 421C281.5 430.5 297 435 300.5 438C288.1 452 285.333 486.167 285.5 501.5C286.7 537.5 311.333 553.167 323.5 556.5C333.5 559.3 365 559 379.5 558.5C430 543 420.5 481 420.5 478C418.1 440.8 394.833 427.833 383.5 426H317.501C237.501 412.8 241.167 325.501 253.001 283.501C273.001 217.101 348.001 215.834 383.001 223.501C456.201 233.901 464.834 308.168 460.001 344.001C454.401 377.601 441.667 392.668 436.001 396.001Z" fill="url(#paint12_linear_791_278)"/>
</g>
<g filter="url(#filter2_dd_791_278)">
<path d="M660 268V220.5H806.5L808 383C808 435 769.333 457 750 461.5C691.6 477.9 649.333 445.333 635.5 427L667.5 387C719.1 441.4 743.333 405.333 749 380.5V269L660 268Z" fill="url(#paint13_linear_791_278)"/>
<rect x="859.5" y="221" width="60" height="241" fill="url(#paint14_linear_791_278)"/>
<path d="M1092.5 216C1166.51 216 1226.5 272.636 1226.5 342.5C1226.5 412.364 1166.51 469 1092.5 469C1018.49 469 958.5 412.364 958.5 342.5C958.5 272.636 1018.49 216 1092.5 216ZM1091.5 268C1051.18 268 1018.5 300.907 1018.5 341.5C1018.5 382.093 1051.18 415 1091.5 415C1131.82 415 1164.5 382.093 1164.5 341.5C1164.5 300.907 1131.82 268 1091.5 268Z" fill="url(#paint15_linear_791_278)"/>
<path d="M1384.5 216C1458.51 216 1518.5 272.636 1518.5 342.5C1518.5 412.364 1458.51 469 1384.5 469C1310.49 469 1250.5 412.364 1250.5 342.5C1250.5 272.636 1310.49 216 1384.5 216ZM1383.5 268C1343.18 268 1310.5 300.907 1310.5 341.5C1310.5 382.093 1343.18 415 1383.5 415C1423.82 415 1456.5 382.093 1456.5 341.5C1456.5 300.907 1423.82 268 1383.5 268Z" fill="url(#paint16_linear_791_278)"/>
</g>
<g filter="url(#filter3_d_791_278)">
<path d="M1067.62 528.072C1071.25 525.908 1075.63 524.43 1080.59 524.815C1085.31 525.182 1090.5 527.236 1096 531.906V525.501H1111V587.533L1111 587.563C1110.49 591.646 1108.45 597.698 1104 602.636C1099.53 607.589 1092.64 611.401 1082.5 611.001C1075.04 611.498 1058.9 608.136 1054.02 590.636L1053.84 590.001H1069.79L1069.94 590.256C1070.65 591.529 1072.15 593.419 1074.3 594.889C1076.43 596.354 1079.19 597.387 1082.44 597.004L1082.47 597.002C1084.85 596.844 1088.36 595.599 1091.09 592.355C1093.68 589.275 1095.6 584.344 1095.1 576.713C1092.48 579.498 1088.12 582.579 1082.64 583.728C1076.54 585.007 1069.09 583.878 1061.18 577.388L1061.14 577.355L1061.11 577.315C1058.65 574.263 1055.47 568.773 1053.85 562.17C1052.24 555.584 1052.19 547.86 1056.02 540.351C1056.03 540.267 1056.06 540.187 1056.08 540.124C1056.12 540.007 1056.18 539.874 1056.25 539.729C1056.39 539.437 1056.59 539.069 1056.85 538.646C1057.37 537.797 1058.14 536.7 1059.13 535.497C1061.11 533.091 1064 530.234 1067.62 528.072ZM1081.5 537C1073.77 537 1067.5 544.836 1067.5 554.5C1067.5 564.165 1073.77 572 1081.5 572C1089.23 572 1095.5 564.165 1095.5 554.5C1095.5 544.836 1089.23 537.001 1081.5 537Z" fill="url(#paint17_linear_791_278)"/>
<path d="M651 510H635L654 584H672L685 532.5L698 584H715.5L735.5 510H720L707 563L692.5 510H677L663 563L651 510Z" fill="url(#paint18_linear_791_278)"/>
<path d="M764.484 525.001C778.258 524.596 786.103 530.266 790.259 537.579C794.389 544.847 794.838 553.668 793.994 559.571L793.933 560.001H754.63C756.657 568.198 762.412 570.691 765.256 570.979L765.527 571.001L765.558 571.002L765.587 571.008C772.059 572.15 775.919 567.366 777.042 564.8L777.173 564.5H793.05L792.998 565.048C792.178 573.655 787.209 578.788 781.372 581.685C775.558 584.571 768.866 585.252 764.471 584.999L764.459 584.998C754.282 584.184 747.816 578.999 743.89 572.856C740.221 567.117 738.767 560.544 738.53 555.909L738.499 555.009C738.297 543.465 742.565 536.027 748.027 531.442C753.469 526.876 760.056 525.171 764.48 525.001H764.484ZM767.025 536.514C762.816 536.303 759.676 538.462 757.486 541.175C755.304 543.88 754.026 547.179 753.513 549.401L753.371 550.014H779.59L779.493 549.432C779.149 547.369 778.124 544.265 776.151 541.615C774.171 538.955 771.212 536.723 767.025 536.514Z" fill="url(#paint19_linear_791_278)"/>
<path d="M818.5 526.5H804V583.5H818.5V526.5Z" fill="url(#paint20_linear_791_278)"/>
<circle cx="811" cy="510.5" r="9.5" fill="url(#paint21_linear_791_278)"/>
<path d="M978.5 526.5H964V583.5H978.5V526.5Z" fill="url(#paint22_linear_791_278)"/>
<circle cx="971" cy="510.5" r="9.5" fill="url(#paint23_linear_791_278)"/>
<path d="M842.621 528.072C846.249 525.908 850.633 524.43 855.587 524.815C860.308 525.182 865.497 527.236 871.002 531.906V525.501H886.002V587.533L885.998 587.563C885.487 591.646 883.452 597.698 878.998 602.636C874.53 607.589 867.644 611.401 857.503 611.001C850.035 611.498 833.903 608.136 829.019 590.636L828.842 590.001H844.794L844.937 590.256C845.653 591.529 847.152 593.419 849.296 594.889C851.433 596.354 854.19 597.387 857.443 597.004L857.468 597.002C859.845 596.844 863.364 595.599 866.093 592.355C868.684 589.275 870.601 584.344 870.095 576.713C867.478 579.498 863.122 582.579 857.641 583.728C851.538 585.007 844.094 583.878 836.184 577.388L836.144 577.355L836.112 577.315C833.653 574.263 830.468 568.773 828.853 562.17C827.242 555.584 827.189 547.86 831.017 540.351C831.033 540.267 831.056 540.187 831.079 540.124C831.12 540.007 831.177 539.874 831.247 539.729C831.387 539.437 831.59 539.069 831.851 538.646C832.374 537.797 833.141 536.7 834.13 535.497C836.109 533.091 838.996 530.234 842.621 528.072ZM856.5 537C848.768 537 842.5 544.836 842.5 554.5C842.5 564.165 848.768 572 856.5 572C864.231 572 870.5 564.165 870.5 554.5C870.499 544.836 864.231 537.001 856.5 537Z" fill="url(#paint24_linear_791_278)"/>
<path d="M913.501 505.79V534.546C918.338 528.891 924.117 526.063 930.839 526.063C934.289 526.063 937.401 526.703 940.175 527.984C942.949 529.264 945.03 530.9 946.417 532.892C947.84 534.883 948.8 537.089 949.298 539.507C949.831 541.925 950.098 545.678 950.098 550.764V584H935.107V554.071C935.107 548.132 934.823 544.362 934.253 542.761C933.684 541.161 932.671 539.898 931.213 538.974C929.79 538.013 927.994 537.533 925.824 537.533C923.335 537.533 921.112 538.138 919.156 539.347C917.2 540.556 915.759 542.388 914.834 544.842C913.945 547.26 913.501 550.853 913.501 555.618V584H898.51V505.79H913.501Z" fill="url(#paint25_linear_791_278)"/>
<path d="M1042.98 583H1027.99V554.085C1027.99 547.968 1027.67 544.02 1027.03 542.241C1026.39 540.428 1025.34 539.023 1023.88 538.027C1022.46 537.031 1020.73 536.533 1018.71 536.533C1016.11 536.533 1013.78 537.244 1011.72 538.667C1009.66 540.09 1008.23 541.975 1007.45 544.322C1006.7 546.669 1006.33 551.008 1006.33 557.339V583H991.339V526.343H1005.26V534.666C1010.21 528.264 1016.43 525.063 1023.94 525.063C1027.24 525.063 1030.27 525.668 1033 526.877C1035.74 528.051 1037.81 529.562 1039.19 531.412C1040.62 533.261 1041.59 535.359 1042.13 537.707C1042.7 540.054 1042.98 543.415 1042.98 547.79V583Z" fill="url(#paint26_linear_791_278)"/>
</g>
<g filter="url(#filter4_d_791_278)">
<path d="M1437 526H1425C1424.45 526 1424 526.447 1424 527V583.5C1424 584.052 1424.45 584.5 1425 584.5H1437C1437.55 584.5 1438 584.052 1438 583.5V548.112C1438 548.038 1438.01 547.961 1438.03 547.889C1440.06 539.187 1447.51 537.668 1451 538C1456.94 538 1459.78 544.542 1460.48 547.905C1460.49 547.97 1460.5 548.033 1460.5 548.099V583.5C1460.5 584.052 1460.95 584.5 1461.5 584.5H1476C1477.47 584.5 1476.06 549.52 1476 546.641C1476 546.533 1476.02 546.445 1476.05 546.344C1478.82 538.264 1484.92 537.373 1487.82 537.96C1487.94 537.985 1488.07 537.99 1488.19 537.976C1493.61 537.368 1496.93 544.214 1497.96 547.873C1497.99 547.959 1498 548.045 1498 548.134V583.5C1498 584.052 1498.45 584.5 1499 584.5H1511.5C1512.05 584.5 1512.5 584.052 1512.5 583.5V541.244C1512.5 541.085 1512.46 540.921 1512.38 540.78C1499.97 516.99 1481.6 525.789 1473.24 533.77C1472.83 534.162 1472.17 534.148 1471.77 533.747C1459.56 521.535 1446.33 525.91 1439.74 530.622C1439.04 531.123 1438 530.64 1438 529.778V527C1438 526.447 1437.55 526 1437 526Z" fill="url(#paint27_linear_791_278)"/>
<path d="M1339.5 511.5H1326C1325.45 511.5 1325 511.948 1325 512.5V525.5C1325 526.052 1324.55 526.5 1324 526.5H1320C1319.45 526.5 1319 526.948 1319 527.5V537C1319 537.552 1319.45 538 1320 538H1325C1325.55 538 1326 538.448 1326 539V570.5C1326.79 577.997 1333.48 581.894 1336.86 582.958C1336.96 582.987 1337.05 583 1337.15 583H1350C1350.55 583 1351 582.552 1351 582V571.5C1351 570.948 1350.55 570.5 1350 570.5H1344C1342.07 570.5 1340.92 568.336 1340.54 567.134C1340.51 567.045 1340.5 566.953 1340.5 566.86V539C1340.5 538.448 1340.95 538 1341.5 538H1350C1350.55 538 1351 537.552 1351 537V527.5C1351 526.948 1350.55 526.5 1350 526.5H1341.5C1340.95 526.5 1340.5 526.052 1340.5 525.5V512.5C1340.5 511.948 1340.05 511.5 1339.5 511.5Z" fill="url(#paint28_linear_791_278)"/>
<path d="M1384.49 525.02C1398.27 524.615 1406.11 530.286 1410.27 537.599C1414.4 544.866 1414.85 553.687 1414 559.591L1413.94 560.02H1374.64C1376.66 568.218 1382.42 570.711 1385.26 570.999L1385.54 571.02L1385.57 571.021L1385.59 571.027C1392.07 572.169 1395.93 567.385 1397.05 564.819L1397.18 564.519H1413.06L1413.01 565.067C1412.19 573.674 1407.22 578.808 1401.38 581.705C1395.57 584.591 1388.87 585.272 1384.48 585.018L1384.47 585.017C1374.29 584.203 1367.82 579.018 1363.9 572.876C1360.23 567.136 1358.78 560.564 1358.54 555.929L1358.51 555.028C1358.3 543.484 1362.57 536.046 1368.04 531.462C1373.48 526.895 1380.06 525.191 1384.49 525.02H1384.49ZM1387.03 536.533C1382.82 536.323 1379.68 538.481 1377.49 541.194C1375.31 543.899 1374.03 547.198 1373.52 549.421L1373.38 550.033H1399.6L1399.5 549.451C1399.16 547.388 1398.13 544.285 1396.16 541.635C1394.18 538.974 1391.22 536.743 1387.03 536.533Z" fill="url(#paint29_linear_791_278)"/>
<path d="M1196.87 531.929L1182.5 531.002C1181.95 531.002 1181.51 530.551 1181.44 530.003C1180.75 524.399 1174.31 522.659 1171 522.5C1164.66 522.104 1162.38 526.578 1162.01 528.931C1162 528.978 1162 529.025 1162 529.073C1162.05 537.183 1171.24 539.338 1173.29 540.379C1173.43 540.453 1173.59 540.509 1173.75 540.526C1197.12 543.016 1199.66 559.195 1198 567C1193.6 582.2 1178.17 585 1171 584.5C1153.88 584.12 1147.16 570.741 1145.69 563.125C1145.57 562.53 1146.04 562 1146.65 562H1161.74C1162.19 562 1162.58 562.308 1162.72 562.737C1166.07 573.452 1174.81 571.805 1178.92 569.545C1178.97 569.515 1179.03 569.477 1179.08 569.437C1188.94 561.069 1176.81 554.995 1169.5 553C1156.38 551.012 1149.75 542.934 1148.03 539.071C1148.01 539.022 1147.99 538.972 1147.98 538.92C1142.44 516.983 1160.01 510.167 1169.5 509.502C1190.16 507.588 1196.92 522.304 1197.9 530.878C1197.97 531.476 1197.47 531.968 1196.87 531.929Z" fill="url(#paint30_linear_791_278)"/>
<path d="M1217.81 526.5H1204.5C1203.79 526.5 1203.3 527.227 1203.58 527.886L1225.83 581.09C1225.94 581.351 1225.93 581.646 1225.81 581.902L1214.17 606.573C1213.86 607.237 1214.34 608 1215.08 608H1229.32C1229.73 608 1230.1 607.748 1230.25 607.365L1261.46 527.865C1261.72 527.209 1261.24 526.5 1260.53 526.5H1247.69C1247.28 526.5 1246.9 526.759 1246.76 527.15L1233.92 561.535C1233.6 562.396 1232.38 562.403 1232.05 561.545L1218.75 527.139C1218.6 526.754 1218.23 526.5 1217.81 526.5Z" fill="url(#paint31_linear_791_278)"/>
<path d="M1311.41 544.462C1307.43 544.333 1301.21 544.195 1298.37 544.342C1297.69 544.377 1297 543.789 1296.9 543.114C1296.15 538.211 1291.45 536.653 1289 536.5C1285.1 536.11 1282.16 539.167 1281.08 540.866C1281.03 540.955 1280.99 541.054 1280.97 541.157C1280.01 546.26 1290.22 549.175 1295.5 550C1311.5 551.6 1313.5 564.333 1312.5 570.5C1310.9 582.5 1295.5 584.833 1288 584.5C1271.7 584.5 1266.09 572.823 1265.12 566.069C1265.04 565.493 1265.5 565 1266.08 565H1279.06C1279.59 565 1280.02 565.413 1280.13 565.928C1281.26 571.122 1288.72 572.158 1292.5 572C1294 572 1297 571 1297 567C1297 563 1284.33 559 1278 557.5C1270 554.7 1267.67 547.666 1267.5 544.499C1265.5 530.099 1280.33 525.5 1288 525.001C1305.83 524.622 1311.58 536.504 1312.41 543.418C1312.48 544 1312 544.481 1311.41 544.462Z" fill="url(#paint32_linear_791_278)"/>
</g>
<g filter="url(#filter5_d_791_278)">
<path d="M766 641H761.5C760.948 641 760.5 641.448 760.5 642V681C760.5 681.552 760.948 682 761.5 682H766C766.552 682 767 681.552 767 681V642C767 641.448 766.552 641 766 641Z" fill="url(#paint33_linear_791_278)"/>
<path d="M793.398 640.5C793.5 640.5 793.604 640.511 793.704 640.532C800.61 641.983 804.783 645.784 807.176 649.957C809.549 654.096 810.165 658.587 810 661.497C810.399 668.21 807.779 673.032 804.327 676.319C800.885 679.597 796.623 681.348 793.701 681.969C793.598 681.991 793.498 682 793.398 682H777.5C776.672 682 776 681.328 776 680.5V642C776 641.172 776.672 640.5 777.5 640.5H793.398ZM782 645C781.172 645 780.5 645.672 780.5 646.5V676.456C780.5 677.31 781.212 677.991 782.065 677.954L792.371 677.506C792.518 677.499 792.665 677.472 792.811 677.419C795.209 676.54 798.736 674.696 801.428 671.697C804.134 668.682 805.996 664.497 805.009 659.004C805.003 658.971 804.999 658.936 804.996 658.885C804.966 658.375 804.739 657.393 804.308 656.199C803.871 654.992 803.212 653.53 802.291 652.059C800.452 649.122 797.538 646.097 793.233 645.042C793.118 645.014 792.999 645 792.884 645H782Z" fill="url(#paint34_linear_791_278)"/>
<path d="M834.398 640.5C834.5 640.5 834.604 640.511 834.704 640.532C841.61 641.983 845.783 645.784 848.176 649.957C850.549 654.096 851.165 658.587 851 661.497C851.399 668.21 848.779 673.032 845.327 676.319C841.885 679.597 837.623 681.348 834.701 681.969C834.598 681.991 834.498 682 834.398 682H818.5C817.672 682 817 681.328 817 680.5V642C817 641.172 817.672 640.5 818.5 640.5H834.398ZM823 645C822.172 645 821.5 645.672 821.5 646.5V676.456C821.5 677.31 822.212 677.991 823.065 677.954L833.371 677.506C833.518 677.499 833.665 677.472 833.811 677.419C836.209 676.54 839.736 674.696 842.428 671.697C845.134 668.682 846.996 664.497 846.009 659.004C846.003 658.971 845.999 658.936 845.996 658.885C845.966 658.375 845.739 657.393 845.308 656.199C844.871 654.992 844.212 653.53 843.291 652.059C841.452 649.122 838.538 646.097 834.233 645.042C834.118 645.014 833.999 645 833.884 645H823Z" fill="url(#paint35_linear_791_278)"/>
<path d="M747.548 651.151C747.325 649.173 746.406 647.64 744.789 646.553C743.173 645.453 741.139 644.902 738.686 644.902C736.931 644.902 735.412 645.181 734.13 645.738C732.848 646.282 731.852 647.034 731.141 647.996C730.445 648.943 730.096 650.023 730.096 651.235C730.096 652.252 730.333 653.13 730.807 653.869C731.295 654.607 731.929 655.227 732.709 655.729C733.503 656.216 734.353 656.627 735.259 656.962C736.165 657.282 737.035 657.547 737.871 657.756L742.051 658.843C743.417 659.177 744.817 659.63 746.252 660.201C747.688 660.773 749.018 661.525 750.244 662.459C751.471 663.392 752.46 664.549 753.212 665.928C753.979 667.307 754.362 668.959 754.362 670.881C754.362 673.306 753.735 675.459 752.481 677.34C751.241 679.221 749.436 680.705 747.068 681.791C744.713 682.878 741.863 683.422 738.519 683.422C735.315 683.422 732.542 682.913 730.201 681.896C727.86 680.879 726.028 679.437 724.704 677.569C723.38 675.688 722.649 673.459 722.51 670.881H728.989C729.114 672.428 729.616 673.717 730.494 674.748C731.385 675.765 732.521 676.524 733.9 677.026C735.294 677.514 736.819 677.758 738.477 677.758C740.303 677.758 741.926 677.472 743.347 676.901C744.782 676.315 745.911 675.507 746.733 674.476C747.555 673.431 747.966 672.212 747.966 670.819C747.966 669.551 747.604 668.513 746.879 667.705C746.169 666.896 745.2 666.228 743.974 665.698C742.762 665.169 741.39 664.702 739.857 664.298L734.799 662.918C731.371 661.985 728.654 660.612 726.648 658.801C724.655 656.99 723.659 654.593 723.659 651.611C723.659 649.145 724.328 646.992 725.666 645.153C727.003 643.314 728.815 641.886 731.1 640.869C733.385 639.837 735.962 639.322 738.833 639.322C741.731 639.322 744.288 639.83 746.503 640.848C748.733 641.865 750.488 643.265 751.77 645.049C753.052 646.818 753.721 648.852 753.777 651.151H747.548Z" fill="url(#paint36_linear_791_278)"/>
<path d="M679.805 649.5H676.459C675.757 649.5 675.273 650.206 675.527 650.861L686.857 680.13C686.949 680.368 686.947 680.631 686.851 680.867L681.059 695.124C680.792 695.781 681.276 696.5 681.986 696.5H686.326C686.733 696.5 687.1 696.253 687.253 695.875L705.444 650.875C705.71 650.217 705.226 649.5 704.517 649.5H700.195C699.777 649.5 699.403 649.76 699.258 650.151L690.937 672.485C690.614 673.353 689.386 673.353 689.063 672.485L680.742 650.151C680.597 649.76 680.223 649.5 679.805 649.5Z" fill="url(#paint37_linear_791_278)"/>
<path d="M643.5 637.5C644.328 637.5 645 638.172 645 639V651.979C645 652.379 645.493 652.675 645.885 652.424C649.365 650.199 654.285 648.214 659.036 648.845C661.424 649.162 663.76 650.14 665.828 652.064C667.892 653.985 669.668 656.828 670.976 660.845C672.574 665.755 672.446 669.845 671.164 673.114C669.883 676.382 667.47 678.778 664.594 680.339C658.876 683.44 651.208 683.296 646.658 680.023C646.427 679.857 646.006 679.821 645.596 679.979C645.179 680.138 645 680.4 645 680.61V681C645 681.828 644.328 682.5 643.5 682.5H639.5C638.672 682.5 638 681.828 638 681V639C638 638.172 638.672 637.5 639.5 637.5H643.5ZM655 654C649.201 654 644.5 659.149 644.5 665.5C644.5 671.851 649.201 677 655 677C660.799 677 665.5 671.851 665.5 665.5C665.5 659.149 660.799 654 655 654Z" fill="url(#paint38_linear_791_278)"/>
<g filter="url(#filter6_d_791_278)">
<g filter="url(#filter7_d_791_278)">
<path d="M1189.5 640.5H1185.5C1184.95 640.5 1184.5 640.948 1184.5 641.5V681C1184.5 681.552 1184.95 682 1185.5 682H1189.5C1190.05 682 1190.5 681.552 1190.5 681V664C1190.5 663.448 1190.95 663 1191.5 663H1209.5C1210.05 663 1210.5 663.448 1210.5 664V681C1210.5 681.552 1210.95 682 1211.5 682H1216.5C1217.05 682 1217.5 681.552 1217.5 681V641.5C1217.5 640.948 1217.05 640.5 1216.5 640.5H1212C1211.45 640.5 1211 640.948 1211 641.5V657C1211 657.552 1210.55 658 1210 658H1191.5C1190.95 658 1190.5 657.552 1190.5 657V641.5C1190.5 640.948 1190.05 640.5 1189.5 640.5Z" fill="url(#paint39_linear_791_278)"/>
</g>
<path d="M1074.5 644.5V641C1074.5 640.448 1074.95 640 1075.5 640H1102.5C1103.05 640 1103.5 640.448 1103.5 641V644.5C1103.5 645.052 1103.05 645.5 1102.5 645.5H1092.5C1091.95 645.5 1091.5 645.948 1091.5 646.5V681C1091.5 681.552 1091.05 682 1090.5 682H1087C1086.45 682 1086 681.552 1086 681V646.5C1086 645.948 1085.55 645.5 1085 645.5H1075.5C1074.95 645.5 1074.5 645.052 1074.5 644.5Z" fill="url(#paint40_linear_791_278)"/>
<path d="M1131.5 640H1111C1110.45 640 1110 640.448 1110 641V680.5C1110 681.052 1110.45 681.5 1111 681.5H1131.5C1132.05 681.5 1132.5 681.052 1132.5 680.5V678C1132.5 677.448 1132.05 677 1131.5 677H1116C1115.45 677 1115 676.552 1115 676V664.5C1115 663.948 1115.45 663.5 1116 663.5H1130C1130.55 663.5 1131 663.052 1131 662.5V659.5C1131 658.948 1130.55 658.5 1130 658.5H1116C1115.45 658.5 1115 658.052 1115 657.5V646.5C1115 645.948 1115.45 645.5 1116 645.5H1131.5C1132.05 645.5 1132.5 645.052 1132.5 644.5V641C1132.5 640.448 1132.05 640 1131.5 640Z" fill="url(#paint41_linear_791_278)"/>
<g filter="url(#filter8_d_791_278)">
<path d="M1177.5 653.241H1170.98C1170.73 651.847 1170.27 650.621 1169.58 649.562C1168.9 648.503 1168.06 647.605 1167.07 646.866C1166.09 646.128 1164.98 645.57 1163.75 645.194C1162.54 644.818 1161.25 644.63 1159.89 644.63C1157.42 644.63 1155.21 645.25 1153.26 646.49C1151.32 647.73 1149.79 649.548 1148.66 651.945C1147.55 654.342 1146.99 657.268 1146.99 660.723C1146.99 664.206 1147.55 667.146 1148.66 669.543C1149.79 671.94 1151.33 673.751 1153.28 674.977C1155.23 676.203 1157.43 676.816 1159.86 676.816C1161.22 676.816 1162.5 676.635 1163.71 676.273C1164.94 675.897 1166.04 675.346 1167.03 674.622C1168.02 673.897 1168.86 673.012 1169.54 671.967C1170.24 670.909 1170.72 669.696 1170.98 668.331L1177.5 668.352C1177.16 670.456 1176.48 672.392 1175.48 674.162C1174.49 675.918 1173.21 677.436 1171.65 678.718C1170.11 679.986 1168.34 680.969 1166.34 681.665C1164.35 682.362 1162.18 682.71 1159.82 682.71C1156.12 682.71 1152.81 681.832 1149.92 680.077C1147.02 678.307 1144.73 675.778 1143.06 672.49C1141.4 669.202 1140.57 665.279 1140.57 660.723C1140.57 656.153 1141.41 652.231 1143.08 648.956C1144.75 645.668 1147.04 643.146 1149.94 641.39C1152.83 639.621 1156.13 638.736 1159.82 638.736C1162.09 638.736 1164.21 639.063 1166.18 639.718C1168.15 640.359 1169.93 641.307 1171.51 642.561C1173.08 643.801 1174.38 645.32 1175.41 647.117C1176.45 648.9 1177.14 650.942 1177.5 653.241Z" fill="url(#paint42_linear_791_278)"/>
</g>
</g>
<path d="M876.299 641C876.93 641 877.494 641.396 877.709 641.989L891.484 679.989C891.838 680.967 891.114 682 890.074 682H885.221C884.575 682 884.002 681.587 883.798 680.975L881.254 673.342C881.186 673.138 880.994 673 880.779 673H865.184C864.978 673 864.792 673.126 864.718 673.318L861.714 681.044C861.49 681.62 860.935 682 860.316 682H855.943C854.896 682 854.171 680.954 854.538 679.974L868.788 641.974C869.008 641.388 869.568 641 870.193 641H876.299ZM874.779 650.458C874.369 649.126 872.519 649.021 871.974 650.312C869.704 655.696 866.534 663.461 865.714 666.392C865.595 666.816 865.695 667.232 865.954 667.537C866.208 667.835 866.591 668 867 668H878.146C879.155 668 879.877 667.023 879.58 666.059L874.779 650.458Z" fill="url(#paint43_linear_791_278)"/>
<path d="M951.299 641C951.93 641 952.494 641.396 952.709 641.989L966.484 679.989C966.838 680.967 966.114 682 965.074 682H960.221C959.575 682 959.002 681.587 958.798 680.975L956.254 673.342C956.186 673.138 955.994 673 955.779 673H940.184C939.978 673 939.792 673.126 939.718 673.318L936.714 681.044C936.49 681.62 935.935 682 935.316 682H930.943C929.896 682 929.171 680.954 929.538 679.974L943.788 641.974C944.008 641.388 944.568 641 945.193 641H951.299ZM949.779 650.458C949.369 649.126 947.519 649.021 946.974 650.312C944.704 655.696 941.534 663.461 940.714 666.392C940.595 666.816 940.695 667.232 940.954 667.537C941.208 667.835 941.591 668 942 668H953.146C954.155 668 954.877 667.023 954.58 666.059L949.779 650.458Z" fill="url(#paint44_linear_791_278)"/>
<path d="M1041.3 641C1041.93 641 1042.49 641.396 1042.71 641.989L1056.48 679.989C1056.84 680.967 1056.11 682 1055.07 682H1050.22C1049.58 682 1049 681.587 1048.8 680.975L1046.25 673.342C1046.19 673.138 1045.99 673 1045.78 673H1030.18C1029.98 673 1029.79 673.126 1029.72 673.318L1026.71 681.044C1026.49 681.62 1025.93 682 1025.32 682H1020.94C1019.9 682 1019.17 680.954 1019.54 679.974L1033.79 641.974C1034.01 641.388 1034.57 641 1035.19 641H1041.3ZM1039.78 650.458C1039.37 649.126 1037.52 649.021 1036.97 650.312C1034.7 655.696 1031.53 663.461 1030.71 666.392C1030.59 666.816 1030.69 667.232 1030.95 667.537C1031.21 667.835 1031.59 668 1032 668H1043.15C1044.16 668 1044.88 667.023 1044.58 666.059L1039.78 650.458Z" fill="url(#paint45_linear_791_278)"/>
<path d="M977.5 682H973C972.448 682 972 681.552 972 681V641.5C972 640.948 972.448 640.5 973 640.5H977.843C978.242 640.5 978.603 640.737 978.761 641.103L992.066 671.842C992.416 672.652 993.567 672.644 993.907 671.831L1006.74 641.114C1006.9 640.742 1007.26 640.5 1007.67 640.5H1013C1013.55 640.5 1014 640.948 1014 641.5V681C1014 681.552 1013.55 682 1013 682H1008.03C1007.47 682 1007.02 681.531 1007.04 680.966L1007.82 657.887C1007.85 656.779 1006.33 656.442 1005.9 657.463L995.758 681.39C995.602 681.76 995.239 682 994.838 682H991.181C990.77 682 990.401 681.749 990.251 681.366L980.431 656.407C980.026 655.379 978.5 655.669 978.5 656.773V681C978.5 681.552 978.052 682 977.5 682Z" fill="url(#paint46_linear_791_278)"/>
<path d="M897.465 641.222C899.82 641.053 906.606 640.821 915.023 641.222C919.413 641.431 922.178 643.666 923.826 646.36C925.452 649.019 925.994 652.122 925.999 654.19C926.412 657.588 924.806 660.308 922.706 662.297C920.819 664.083 918.495 665.318 916.735 665.987L926.431 682.468L926.874 683.221H918.707L918.563 682.965L909.206 666.221H903.5V683.221H897V641.255L897.465 641.222ZM902.5 645.723V660.723H914.573L914.644 660.701C916.404 660.173 920 658.046 920 653.723C920.082 652.574 919.923 650.849 919.159 649.335C918.374 647.778 916.944 646.443 914.545 646.225C910.124 645.823 905.008 645.723 903 645.723H902.5Z" fill="url(#paint47_linear_791_278)"/>
<g filter="url(#filter9_d_791_278)">
<path d="M1351.5 640H1347.52C1346.96 640 1346.51 640.457 1346.52 641.016L1347 671.854C1347 671.951 1347.02 672.049 1347.05 672.141C1350.1 681.505 1360.5 682 1361 682C1371.27 682.79 1376.54 675.192 1377.95 671.15C1377.98 671.049 1378 670.945 1378 670.838V641C1378 640.448 1377.55 640 1377 640H1372.5C1371.95 640 1371.5 640.448 1371.5 641V669.894C1371.5 669.964 1371.49 670.036 1371.48 670.105C1370.22 675.613 1363.98 676.666 1361 676.5C1355.48 676.106 1353.07 671.469 1352.52 669.101C1352.51 669.033 1352.5 668.964 1352.5 668.894V641C1352.5 640.448 1352.05 640 1351.5 640Z" fill="url(#paint48_linear_791_278)"/>
</g>
<g filter="url(#filter10_d_791_278)">
<path d="M1484.5 682.5H1480.5C1479.95 682.5 1479.5 682.052 1479.5 681.5V642C1479.5 641.448 1479.95 641 1480.5 641H1484.95C1485.29 641 1485.61 641.177 1485.79 641.468L1503.15 669.065C1503.69 669.914 1505 669.535 1505 668.532V642C1505 641.448 1505.45 641 1506 641H1511.5C1512.05 641 1512.5 641.448 1512.5 642V681.5C1512.5 682.052 1512.05 682.5 1511.5 682.5H1505.57C1505.21 682.5 1504.89 682.316 1504.71 682.014L1487.36 653.096C1486.84 652.226 1485.5 652.596 1485.5 653.61V681.5C1485.5 682.052 1485.05 682.5 1484.5 682.5Z" fill="url(#paint49_linear_791_278)"/>
</g>
<g filter="url(#filter11_d_791_278)">
<path d="M1340 682H1321.5C1320.95 682 1320.5 681.552 1320.5 681V641.5C1320.5 640.948 1320.95 640.5 1321.5 640.5H1325.5C1326.05 640.5 1326.5 640.948 1326.5 641.5V676C1326.5 676.552 1326.95 677 1327.5 677H1340C1340.55 677 1341 677.448 1341 678V681C1341 681.552 1340.55 682 1340 682Z" fill="url(#paint50_linear_791_278)"/>
</g>
<g filter="url(#filter12_d_791_278)">
<path d="M1383.5 644.5V641C1383.5 640.448 1383.95 640 1384.5 640H1411.5C1412.05 640 1412.5 640.448 1412.5 641V644.5C1412.5 645.052 1412.05 645.5 1411.5 645.5H1401.5C1400.95 645.5 1400.5 645.948 1400.5 646.5V681C1400.5 681.552 1400.05 682 1399.5 682H1396C1395.45 682 1395 681.552 1395 681V646.5C1395 645.948 1394.55 645.5 1394 645.5H1384.5C1383.95 645.5 1383.5 645.052 1383.5 644.5Z" fill="url(#paint51_linear_791_278)"/>
</g>
<g filter="url(#filter13_d_791_278)">
<path d="M1425 641H1420.5C1419.95 641 1419.5 641.448 1419.5 642V681C1419.5 681.552 1419.95 682 1420.5 682H1425C1425.55 682 1426 681.552 1426 681V642C1426 641.448 1425.55 641 1425 641Z" fill="url(#paint52_linear_791_278)"/>
</g>
<g filter="url(#filter14_d_791_278)">
<path d="M1259.55 652.151C1259.33 650.173 1258.41 648.64 1256.79 647.553C1255.17 646.453 1253.14 645.902 1250.69 645.902C1248.93 645.902 1247.41 646.181 1246.13 646.738C1244.85 647.282 1243.85 648.034 1243.14 648.996C1242.44 649.943 1242.1 651.023 1242.1 652.235C1242.1 653.252 1242.33 654.13 1242.81 654.869C1243.29 655.607 1243.93 656.227 1244.71 656.729C1245.5 657.216 1246.35 657.627 1247.26 657.962C1248.16 658.282 1249.04 658.547 1249.87 658.756L1254.05 659.843C1255.42 660.177 1256.82 660.63 1258.25 661.201C1259.69 661.773 1261.02 662.525 1262.24 663.459C1263.47 664.392 1264.46 665.549 1265.21 666.928C1265.98 668.307 1266.36 669.959 1266.36 671.881C1266.36 674.306 1265.73 676.459 1264.48 678.34C1263.24 680.221 1261.44 681.705 1259.07 682.791C1256.71 683.878 1253.86 684.422 1250.52 684.422C1247.31 684.422 1244.54 683.913 1242.2 682.896C1239.86 681.879 1238.03 680.437 1236.7 678.569C1235.38 676.688 1234.65 674.459 1234.51 671.881H1240.99C1241.11 673.428 1241.62 674.717 1242.49 675.748C1243.39 676.765 1244.52 677.524 1245.9 678.026C1247.29 678.514 1248.82 678.758 1250.48 678.758C1252.3 678.758 1253.93 678.472 1255.35 677.901C1256.78 677.315 1257.91 676.507 1258.73 675.476C1259.56 674.431 1259.97 673.212 1259.97 671.819C1259.97 670.551 1259.6 669.513 1258.88 668.705C1258.17 667.896 1257.2 667.228 1255.97 666.698C1254.76 666.169 1253.39 665.702 1251.86 665.298L1246.8 663.918C1243.37 662.985 1240.65 661.612 1238.65 659.801C1236.66 657.99 1235.66 655.593 1235.66 652.611C1235.66 650.145 1236.33 647.992 1237.67 646.153C1239 644.314 1240.81 642.886 1243.1 641.869C1245.38 640.837 1247.96 640.322 1250.83 640.322C1253.73 640.322 1256.29 640.83 1258.5 641.848C1260.73 642.865 1262.49 644.265 1263.77 646.049C1265.05 647.818 1265.72 649.852 1265.78 652.151H1259.55Z" fill="url(#paint53_linear_791_278)"/>
</g>
<g filter="url(#filter15_d_791_278)">
<path d="M1292.5 639C1304.1 639 1313.5 648.85 1313.5 661C1313.5 673.15 1304.1 683 1292.5 683C1280.9 683 1271.5 673.15 1271.5 661C1271.5 648.85 1280.9 639 1292.5 639ZM1292.5 646C1284.22 646 1277.5 652.94 1277.5 661.5C1277.5 670.06 1284.22 677 1292.5 677C1300.78 677 1307.5 670.06 1307.5 661.5C1307.5 652.94 1300.78 646 1292.5 646Z" fill="url(#paint54_linear_791_278)"/>
</g>
<g filter="url(#filter16_d_791_278)">
<path d="M1452.5 639C1464.1 639 1473.5 648.85 1473.5 661C1473.5 673.15 1464.1 683 1452.5 683C1440.9 683 1431.5 673.15 1431.5 661C1431.5 648.85 1440.9 639 1452.5 639ZM1452.5 646C1444.22 646 1437.5 652.94 1437.5 661.5C1437.5 670.06 1444.22 677 1452.5 677C1460.78 677 1467.5 670.06 1467.5 661.5C1467.5 652.94 1460.78 646 1452.5 646Z" fill="url(#paint55_linear_791_278)"/>
</g>
</g>
</g>
<defs>
<filter id="filter0_d_791_278" x="119" y="117" width="489.5" height="603.5" filterUnits="userSpaceOnUse" color-interpolation-filters="sRGB">
<feFlood flood-opacity="0" result="BackgroundImageFix"/>
<feColorMatrix in="SourceAlpha" type="matrix" values="0 0 0 0 0 0 0 0 0 0 0 0 0 0 0 0 0 0 127 0" result="hardAlpha"/>
<feOffset dx="10" dy="15"/>
<feGaussianBlur stdDeviation="9"/>
<feComposite in2="hardAlpha" operator="out"/>
<feColorMatrix type="matrix" values="0 0 0 0 0 0 0 0 0 0 0 0 0 0 0 0 0 0 0.4 0"/>
<feBlend mode="normal" in2="BackgroundImageFix" result="effect1_dropShadow_791_278"/>
<feBlend mode="normal" in="SourceGraphic" in2="effect1_dropShadow_791_278" result="shape"/>
</filter>
<filter id="filter1_d_791_278" x="313" y="111" width="64" height="115.5" filterUnits="userSpaceOnUse" color-interpolation-filters="sRGB">
<feFlood flood-opacity="0" result="BackgroundImageFix"/>
<feColorMatrix in="SourceAlpha" type="matrix" values="0 0 0 0 0 0 0 0 0 0 0 0 0 0 0 0 0 0 127 0" result="hardAlpha"/>
<feOffset dx="-8" dy="4"/>
<feGaussianBlur stdDeviation="6.5"/>
<feComposite in2="hardAlpha" operator="out"/>
<feColorMatrix type="matrix" values="0 0 0 0 0 0 0 0 0 0 0 0 0 0 0 0 0 0 0.34 0"/>
<feBlend mode="normal" in2="BackgroundImageFix" result="effect1_dropShadow_791_278"/>
<feBlend mode="normal" in="SourceGraphic" in2="effect1_dropShadow_791_278" result="shape"/>
</filter>
<filter id="filter2_dd_791_278" x="620.5" y="203" width="931" height="302" filterUnits="userSpaceOnUse" color-interpolation-filters="sRGB">
<feFlood flood-opacity="0" result="BackgroundImageFix"/>
<feColorMatrix in="SourceAlpha" type="matrix" values="0 0 0 0 0 0 0 0 0 0 0 0 0 0 0 0 0 0 127 0" result="hardAlpha"/>
<feOffset dx="18" dy="2"/>
<feGaussianBlur stdDeviation="7.5"/>
<feComposite in2="hardAlpha" operator="out"/>
<feColorMatrix type="matrix" values="0 0 0 0 0 0 0 0 0 0 0 0 0 0 0 0 0 0 0.35 0"/>
<feBlend mode="normal" in2="BackgroundImageFix" result="effect1_dropShadow_791_278"/>
<feColorMatrix in="SourceAlpha" type="matrix" values="0 0 0 0 0 0 0 0 0 0 0 0 0 0 0 0 0 0 127 0" result="hardAlpha"/>
<feOffset dy="21"/>
<feGaussianBlur stdDeviation="7.5"/>
<feComposite in2="hardAlpha" operator="out"/>
<feColorMatrix type="matrix" values="0 0 0 0 0 0 0 0 0 0 0 0 0 0 0 0 0 0 0.35 0"/>
<feBlend mode="normal" in2="effect1_dropShadow_791_278" result="effect2_dropShadow_791_278"/>
<feBlend mode="normal" in="SourceGraphic" in2="effect2_dropShadow_791_278" result="shape"/>
</filter>
<filter id="filter3_d_791_278" x="631" y="496" width="506.002" height="140.047" filterUnits="userSpaceOnUse" color-interpolation-filters="sRGB">
<feFlood flood-opacity="0" result="BackgroundImageFix"/>
<feColorMatrix in="SourceAlpha" type="matrix" values="0 0 0 0 0 0 0 0 0 0 0 0 0 0 0 0 0 0 127 0" result="hardAlpha"/>
<feOffset dx="11" dy="10"/>
<feGaussianBlur stdDeviation="7.5"/>
<feComposite in2="hardAlpha" operator="out"/>
<feColorMatrix type="matrix" values="0 0 0 0 0 0 0 0 0 0 0 0 0 0 0 0 0 0 0.35 0"/>
<feBlend mode="normal" in2="BackgroundImageFix" result="effect1_dropShadow_791_278"/>
<feBlend mode="normal" in="SourceGraphic" in2="effect1_dropShadow_791_278" result="shape"/>
</filter>
<filter id="filter4_d_791_278" x="1141.67" y="504.332" width="396.83" height="128.668" filterUnits="userSpaceOnUse" color-interpolation-filters="sRGB">
<feFlood flood-opacity="0" result="BackgroundImageFix"/>
<feColorMatrix in="SourceAlpha" type="matrix" values="0 0 0 0 0 0 0 0 0 0 0 0 0 0 0 0 0 0 127 0" result="hardAlpha"/>
<feOffset dx="11" dy="10"/>
<feGaussianBlur stdDeviation="7.5"/>
<feComposite in2="hardAlpha" operator="out"/>
<feColorMatrix type="matrix" values="0 0 0 0 0 0 0 0 0 0 0 0 0 0 0 0 0 0 0.35 0"/>
<feBlend mode="normal" in2="BackgroundImageFix" result="effect1_dropShadow_791_278"/>
<feBlend mode="normal" in="SourceGraphic" in2="effect1_dropShadow_791_278" result="shape"/>
</filter>
<filter id="filter5_d_791_278" x="636" y="633.5" width="898.5" height="83" filterUnits="userSpaceOnUse" color-interpolation-filters="sRGB">
<feFlood flood-opacity="0" result="BackgroundImageFix"/>
<feColorMatrix in="SourceAlpha" type="matrix" values="0 0 0 0 0 0 0 0 0 0 0 0 0 0 0 0 0 0 127 0" result="hardAlpha"/>
<feOffset dx="10" dy="8"/>
<feGaussianBlur stdDeviation="6"/>
<feComposite in2="hardAlpha" operator="out"/>
<feColorMatrix type="matrix" values="0 0 0 0 0 0 0 0 0 0 0 0 0 0 0 0 0 0 0.35 0"/>
<feBlend mode="normal" in2="BackgroundImageFix" result="effect1_dropShadow_791_278"/>
<feBlend mode="normal" in="SourceGraphic" in2="effect1_dropShadow_791_278" result="shape"/>
</filter>
<filter id="filter6_d_791_278" x="1072.5" y="634.734" width="167" height="67.9766" filterUnits="userSpaceOnUse" color-interpolation-filters="sRGB">
<feFlood flood-opacity="0" result="BackgroundImageFix"/>
<feColorMatrix in="SourceAlpha" type="matrix" values="0 0 0 0 0 0 0 0 0 0 0 0 0 0 0 0 0 0 127 0" result="hardAlpha"/>
<feOffset dx="10" dy="8"/>
<feGaussianBlur stdDeviation="6"/>
<feComposite in2="hardAlpha" operator="out"/>
<feColorMatrix type="matrix" values="0 0 0 0 0 0 0 0 0 0 0 0 0 0 0 0 0 0 0.35 0"/>
<feBlend mode="normal" in2="BackgroundImageFix" result="effect1_dropShadow_791_278"/>
<feBlend mode="normal" in="SourceGraphic" in2="effect1_dropShadow_791_278" result="shape"/>
</filter>
<filter id="filter7_d_791_278" x="1180.5" y="640.5" width="41" height="49.5" filterUnits="userSpaceOnUse" color-interpolation-filters="sRGB">
<feFlood flood-opacity="0" result="BackgroundImageFix"/>
<feColorMatrix in="SourceAlpha" type="matrix" values="0 0 0 0 0 0 0 0 0 0 0 0 0 0 0 0 0 0 127 0" result="hardAlpha"/>
<feOffset dy="4"/>
<feGaussianBlur stdDeviation="2"/>
<feComposite in2="hardAlpha" operator="out"/>
<feColorMatrix type="matrix" values="0 0 0 0 0 0 0 0 0 0 0 0 0 0 0 0 0 0 0.25 0"/>
<feBlend mode="normal" in2="BackgroundImageFix" result="effect1_dropShadow_791_278"/>
<feBlend mode="normal" in="SourceGraphic" in2="effect1_dropShadow_791_278" result="shape"/>
</filter>
<filter id="filter8_d_791_278" x="1136.57" y="638.734" width="44.9316" height="51.9766" filterUnits="userSpaceOnUse" color-interpolation-filters="sRGB">
<feFlood flood-opacity="0" result="BackgroundImageFix"/>
<feColorMatrix in="SourceAlpha" type="matrix" values="0 0 0 0 0 0 0 0 0 0 0 0 0 0 0 0 0 0 127 0" result="hardAlpha"/>
<feOffset dy="4"/>
<feGaussianBlur stdDeviation="2"/>
<feComposite in2="hardAlpha" operator="out"/>
<feColorMatrix type="matrix" values="0 0 0 0 0 0 0 0 0 0 0 0 0 0 0 0 0 0 0.25 0"/>
<feBlend mode="normal" in2="BackgroundImageFix" result="effect1_dropShadow_791_278"/>
<feBlend mode="normal" in="SourceGraphic" in2="effect1_dropShadow_791_278" result="shape"/>
</filter>
<filter id="filter9_d_791_278" x="1344.52" y="636" width="55.4844" height="66.0586" filterUnits="userSpaceOnUse" color-interpolation-filters="sRGB">
<feFlood flood-opacity="0" result="BackgroundImageFix"/>
<feColorMatrix in="SourceAlpha" type="matrix" values="0 0 0 0 0 0 0 0 0 0 0 0 0 0 0 0 0 0 127 0" result="hardAlpha"/>
<feOffset dx="10" dy="8"/>
<feGaussianBlur stdDeviation="6"/>
<feComposite in2="hardAlpha" operator="out"/>
<feColorMatrix type="matrix" values="0 0 0 0 0 0 0 0 0 0 0 0 0 0 0 0 0 0 0.35 0"/>
<feBlend mode="normal" in2="BackgroundImageFix" result="effect1_dropShadow_791_278"/>
<feBlend mode="normal" in="SourceGraphic" in2="effect1_dropShadow_791_278" result="shape"/>
</filter>
<filter id="filter10_d_791_278" x="1477.5" y="637" width="57" height="65.5" filterUnits="userSpaceOnUse" color-interpolation-filters="sRGB">
<feFlood flood-opacity="0" result="BackgroundImageFix"/>
<feColorMatrix in="SourceAlpha" type="matrix" values="0 0 0 0 0 0 0 0 0 0 0 0 0 0 0 0 0 0 127 0" result="hardAlpha"/>
<feOffset dx="10" dy="8"/>
<feGaussianBlur stdDeviation="6"/>
<feComposite in2="hardAlpha" operator="out"/>
<feColorMatrix type="matrix" values="0 0 0 0 0 0 0 0 0 0 0 0 0 0 0 0 0 0 0.35 0"/>
<feBlend mode="normal" in2="BackgroundImageFix" result="effect1_dropShadow_791_278"/>
<feBlend mode="normal" in="SourceGraphic" in2="effect1_dropShadow_791_278" result="shape"/>
</filter>
<filter id="filter11_d_791_278" x="1318.5" y="636.5" width="44.5" height="65.5" filterUnits="userSpaceOnUse" color-interpolation-filters="sRGB">
<feFlood flood-opacity="0" result="BackgroundImageFix"/>
<feColorMatrix in="SourceAlpha" type="matrix" values="0 0 0 0 0 0 0 0 0 0 0 0 0 0 0 0 0 0 127 0" result="hardAlpha"/>
<feOffset dx="10" dy="8"/>
<feGaussianBlur stdDeviation="6"/>
<feComposite in2="hardAlpha" operator="out"/>
<feColorMatrix type="matrix" values="0 0 0 0 0 0 0 0 0 0 0 0 0 0 0 0 0 0 0.35 0"/>
<feBlend mode="normal" in2="BackgroundImageFix" result="effect1_dropShadow_791_278"/>
<feBlend mode="normal" in="SourceGraphic" in2="effect1_dropShadow_791_278" result="shape"/>
</filter>
<filter id="filter12_d_791_278" x="1381.5" y="636" width="53" height="66" filterUnits="userSpaceOnUse" color-interpolation-filters="sRGB">
<feFlood flood-opacity="0" result="BackgroundImageFix"/>
<feColorMatrix in="SourceAlpha" type="matrix" values="0 0 0 0 0 0 0 0 0 0 0 0 0 0 0 0 0 0 127 0" result="hardAlpha"/>
<feOffset dx="10" dy="8"/>
<feGaussianBlur stdDeviation="6"/>
<feComposite in2="hardAlpha" operator="out"/>
<feColorMatrix type="matrix" values="0 0 0 0 0 0 0 0 0 0 0 0 0 0 0 0 0 0 0.35 0"/>
<feBlend mode="normal" in2="BackgroundImageFix" result="effect1_dropShadow_791_278"/>
<feBlend mode="normal" in="SourceGraphic" in2="effect1_dropShadow_791_278" result="shape"/>
</filter>
<filter id="filter13_d_791_278" x="1417.5" y="637" width="30.5" height="65" filterUnits="userSpaceOnUse" color-interpolation-filters="sRGB">
<feFlood flood-opacity="0" result="BackgroundImageFix"/>
<feColorMatrix in="SourceAlpha" type="matrix" values="0 0 0 0 0 0 0 0 0 0 0 0 0 0 0 0 0 0 127 0" result="hardAlpha"/>
<feOffset dx="10" dy="8"/>
<feGaussianBlur stdDeviation="6"/>
<feComposite in2="hardAlpha" operator="out"/>
<feColorMatrix type="matrix" values="0 0 0 0 0 0 0 0 0 0 0 0 0 0 0 0 0 0 0.35 0"/>
<feBlend mode="normal" in2="BackgroundImageFix" result="effect1_dropShadow_791_278"/>
<feBlend mode="normal" in="SourceGraphic" in2="effect1_dropShadow_791_278" result="shape"/>
</filter>
<filter id="filter14_d_791_278" x="1232.51" y="636.32" width="55.8516" height="68.1016" filterUnits="userSpaceOnUse" color-interpolation-filters="sRGB">
<feFlood flood-opacity="0" result="BackgroundImageFix"/>
<feColorMatrix in="SourceAlpha" type="matrix" values="0 0 0 0 0 0 0 0 0 0 0 0 0 0 0 0 0 0 127 0" result="hardAlpha"/>
<feOffset dx="10" dy="8"/>
<feGaussianBlur stdDeviation="6"/>
<feComposite in2="hardAlpha" operator="out"/>
<feColorMatrix type="matrix" values="0 0 0 0 0 0 0 0 0 0 0 0 0 0 0 0 0 0 0.35 0"/>
<feBlend mode="normal" in2="BackgroundImageFix" result="effect1_dropShadow_791_278"/>
<feBlend mode="normal" in="SourceGraphic" in2="effect1_dropShadow_791_278" result="shape"/>
</filter>
<filter id="filter15_d_791_278" x="1269.5" y="635" width="66" height="68" filterUnits="userSpaceOnUse" color-interpolation-filters="sRGB">
<feFlood flood-opacity="0" result="BackgroundImageFix"/>
<feColorMatrix in="SourceAlpha" type="matrix" values="0 0 0 0 0 0 0 0 0 0 0 0 0 0 0 0 0 0 127 0" result="hardAlpha"/>
<feOffset dx="10" dy="8"/>
<feGaussianBlur stdDeviation="6"/>
<feComposite in2="hardAlpha" operator="out"/>
<feColorMatrix type="matrix" values="0 0 0 0 0 0 0 0 0 0 0 0 0 0 0 0 0 0 0.35 0"/>
<feBlend mode="normal" in2="BackgroundImageFix" result="effect1_dropShadow_791_278"/>
<feBlend mode="normal" in="SourceGraphic" in2="effect1_dropShadow_791_278" result="shape"/>
</filter>
<filter id="filter16_d_791_278" x="1429.5" y="635" width="66" height="68" filterUnits="userSpaceOnUse" color-interpolation-filters="sRGB">
<feFlood flood-opacity="0" result="BackgroundImageFix"/>
<feColorMatrix in="SourceAlpha" type="matrix" values="0 0 0 0 0 0 0 0 0 0 0 0 0 0 0 0 0 0 127 0" result="hardAlpha"/>
<feOffset dx="10" dy="8"/>
<feGaussianBlur stdDeviation="6"/>
<feComposite in2="hardAlpha" operator="out"/>
<feColorMatrix type="matrix" values="0 0 0 0 0 0 0 0 0 0 0 0 0 0 0 0 0 0 0.35 0"/>
<feBlend mode="normal" in2="BackgroundImageFix" result="effect1_dropShadow_791_278"/>
<feBlend mode="normal" in="SourceGraphic" in2="effect1_dropShadow_791_278" result="shape"/>
</filter>
<linearGradient id="paint0_linear_791_278" x1="390.895" y1="223.615" x2="316.243" y2="190.63" gradientUnits="userSpaceOnUse">
<stop stop-color="white"/>
<stop offset="1" stop-color="#999999"/>
</linearGradient>
<linearGradient id="paint1_linear_791_278" x1="414.968" y1="391.506" x2="368.697" y2="379.577" gradientUnits="userSpaceOnUse">
<stop stop-color="white"/>
<stop offset="1" stop-color="#999999"/>
</linearGradient>
<linearGradient id="paint2_linear_791_278" x1="292.052" y1="391.506" x2="338.323" y2="379.577" gradientUnits="userSpaceOnUse">
<stop stop-color="white"/>
<stop offset="1" stop-color="#999999"/>
</linearGradient>
<linearGradient id="paint3_linear_791_278" x1="301.043" y1="270.558" x2="313.714" y2="316.362" gradientUnits="userSpaceOnUse">
<stop stop-color="white"/>
<stop offset="1" stop-color="#999999"/>
</linearGradient>
<linearGradient id="paint4_linear_791_278" x1="414.966" y1="426.622" x2="368.695" y2="438.552" gradientUnits="userSpaceOnUse">
<stop stop-color="white"/>
<stop offset="1" stop-color="#999999"/>
</linearGradient>
<linearGradient id="paint5_linear_791_278" x1="292.05" y1="426.622" x2="338.321" y2="438.552" gradientUnits="userSpaceOnUse">
<stop stop-color="white"/>
<stop offset="1" stop-color="#999999"/>
</linearGradient>
<linearGradient id="paint6_linear_791_278" x1="301.041" y1="547.571" x2="313.712" y2="501.767" gradientUnits="userSpaceOnUse">
<stop stop-color="white"/>
<stop offset="1" stop-color="#999999"/>
</linearGradient>
<linearGradient id="paint7_linear_791_278" x1="561.924" y1="699.722" x2="506.635" y2="544.558" gradientUnits="userSpaceOnUse">
<stop stop-color="white"/>
<stop offset="1" stop-color="#999999"/>
</linearGradient>
<linearGradient id="paint8_linear_791_278" x1="637.434" y1="524.906" x2="567.358" y2="406.882" gradientUnits="userSpaceOnUse">
<stop stop-color="white"/>
<stop offset="1" stop-color="#92918F"/>
</linearGradient>
<linearGradient id="paint9_linear_791_278" x1="70.0656" y1="524.906" x2="140.142" y2="406.882" gradientUnits="userSpaceOnUse">
<stop stop-color="white"/>
<stop offset="1" stop-color="#999999"/>
</linearGradient>
<linearGradient id="paint10_linear_791_278" x1="635.189" y1="453.708" x2="467.987" y2="325.617" gradientUnits="userSpaceOnUse">
<stop stop-color="white"/>
<stop offset="1" stop-color="#999999"/>
</linearGradient>
<linearGradient id="paint11_linear_791_278" x1="71.8115" y1="453.708" x2="239.013" y2="325.617" gradientUnits="userSpaceOnUse">
<stop stop-color="white"/>
<stop offset="1" stop-color="#999999"/>
</linearGradient>
<linearGradient id="paint12_linear_791_278" x1="567.76" y1="657.883" x2="194.337" y2="437.342" gradientUnits="userSpaceOnUse">
<stop stop-color="white"/>
<stop offset="1" stop-color="#999999"/>
</linearGradient>
<linearGradient id="paint13_linear_791_278" x1="845.997" y1="660.033" x2="605.481" y2="638.887" gradientUnits="userSpaceOnUse">
<stop stop-color="white"/>
<stop offset="0.250264" stop-color="#D9D9D9"/>
<stop offset="0.842028" stop-color="#92918F"/>
</linearGradient>
<linearGradient id="paint14_linear_791_278" x1="841" y1="650.5" x2="681.268" y2="604.022" gradientUnits="userSpaceOnUse">
<stop offset="0.135436" stop-color="white"/>
<stop offset="1" stop-color="#979694"/>
<stop offset="1" stop-color="#92918F"/>
</linearGradient>
<linearGradient id="paint15_linear_791_278" x1="1019" y1="455" x2="1041.39" y2="98.933" gradientUnits="userSpaceOnUse">
<stop stop-color="white"/>
<stop offset="0.552494" stop-color="#DADAD9"/>
<stop offset="1" stop-color="#92918F"/>
</linearGradient>
<linearGradient id="paint16_linear_791_278" x1="1547.5" y1="281.5" x2="1437.77" y2="543.371" gradientUnits="userSpaceOnUse">
<stop stop-color="#92918F"/>
<stop offset="1" stop-color="white"/>
</linearGradient>
<linearGradient id="paint17_linear_791_278" x1="1077.64" y1="504.755" x2="1089.81" y2="631.221" gradientUnits="userSpaceOnUse">
<stop stop-color="white"/>
<stop offset="1" stop-color="#999999"/>
</linearGradient>
<linearGradient id="paint18_linear_791_278" x1="677.875" y1="492.85" x2="683.091" y2="602.055" gradientUnits="userSpaceOnUse">
<stop stop-color="white"/>
<stop offset="1" stop-color="#999999"/>
</linearGradient>
<linearGradient id="paint19_linear_791_278" x1="762.321" y1="511.06" x2="768.489" y2="599.475" gradientUnits="userSpaceOnUse">
<stop stop-color="white"/>
<stop offset="1" stop-color="#999999"/>
</linearGradient>
<linearGradient id="paint20_linear_791_278" x1="810.186" y1="513.29" x2="830.372" y2="592.452" gradientUnits="userSpaceOnUse">
<stop stop-color="white"/>
<stop offset="1" stop-color="#999999"/>
</linearGradient>
<linearGradient id="paint21_linear_791_278" x1="809.606" y1="496.597" x2="811.421" y2="524.582" gradientUnits="userSpaceOnUse">
<stop stop-color="white"/>
<stop offset="1" stop-color="#999999"/>
</linearGradient>
<linearGradient id="paint22_linear_791_278" x1="970.186" y1="513.29" x2="990.372" y2="592.452" gradientUnits="userSpaceOnUse">
<stop stop-color="white"/>
<stop offset="1" stop-color="#999999"/>
</linearGradient>
<linearGradient id="paint23_linear_791_278" x1="969.606" y1="496.597" x2="971.421" y2="524.582" gradientUnits="userSpaceOnUse">
<stop stop-color="white"/>
<stop offset="1" stop-color="#999999"/>
</linearGradient>
<linearGradient id="paint24_linear_791_278" x1="852.639" y1="504.755" x2="864.806" y2="631.221" gradientUnits="userSpaceOnUse">
<stop stop-color="white"/>
<stop offset="1" stop-color="#999999"/>
</linearGradient>
<linearGradient id="paint25_linear_791_278" x1="919.201" y1="453.799" x2="941.602" y2="637.433" gradientUnits="userSpaceOnUse">
<stop stop-color="white"/>
<stop offset="1" stop-color="#999999"/>
</linearGradient>
<linearGradient id="paint26_linear_791_278" x1="1012.08" y1="452.799" x2="1034.49" y2="636.433" gradientUnits="userSpaceOnUse">
<stop stop-color="white"/>
<stop offset="1" stop-color="#999999"/>
</linearGradient>
<linearGradient id="paint27_linear_791_278" x1="1467.89" y1="525.352" x2="1472.27" y2="584.227" gradientUnits="userSpaceOnUse">
<stop stop-color="white"/>
<stop offset="1" stop-color="#999999"/>
</linearGradient>
<linearGradient id="paint28_linear_791_278" x1="1334.87" y1="511.5" x2="1351.62" y2="578.9" gradientUnits="userSpaceOnUse">
<stop stop-color="white"/>
<stop offset="1" stop-color="#999999"/>
</linearGradient>
<linearGradient id="paint29_linear_791_278" x1="1386.2" y1="525" x2="1393.29" y2="584.273" gradientUnits="userSpaceOnUse">
<stop stop-color="white"/>
<stop offset="1" stop-color="#999999"/>
</linearGradient>
<linearGradient id="paint30_linear_791_278" x1="1171.74" y1="509.332" x2="1183.36" y2="582.783" gradientUnits="userSpaceOnUse">
<stop stop-color="white"/>
<stop offset="1" stop-color="#999999"/>
</linearGradient>
<linearGradient id="paint31_linear_791_278" x1="1232.26" y1="526.5" x2="1244.51" y2="606.191" gradientUnits="userSpaceOnUse">
<stop stop-color="white"/>
<stop offset="1" stop-color="#999999"/>
</linearGradient>
<linearGradient id="paint32_linear_791_278" x1="1288.67" y1="524.992" x2="1296.78" y2="583.457" gradientUnits="userSpaceOnUse">
<stop stop-color="white"/>
<stop offset="1" stop-color="#999999"/>
</linearGradient>
<linearGradient id="paint33_linear_791_278" x1="763.75" y1="641" x2="763.75" y2="682" gradientUnits="userSpaceOnUse">
<stop stop-color="white"/>
<stop offset="1" stop-color="#999999"/>
</linearGradient>
<linearGradient id="paint34_linear_791_278" x1="793.02" y1="640.5" x2="793.02" y2="682" gradientUnits="userSpaceOnUse">
<stop stop-color="white"/>
<stop offset="1" stop-color="#999999"/>
</linearGradient>
<linearGradient id="paint35_linear_791_278" x1="834.02" y1="640.5" x2="834.02" y2="682" gradientUnits="userSpaceOnUse">
<stop stop-color="white"/>
<stop offset="1" stop-color="#999999"/>
</linearGradient>
<linearGradient id="paint36_linear_791_278" x1="738.5" y1="625.711" x2="738.5" y2="696.711" gradientUnits="userSpaceOnUse">
<stop stop-color="white"/>
<stop offset="1" stop-color="#999999"/>
</linearGradient>
<linearGradient id="paint37_linear_791_278" x1="690.5" y1="649.5" x2="690.5" y2="696.5" gradientUnits="userSpaceOnUse">
<stop stop-color="white"/>
<stop offset="1" stop-color="#999999"/>
</linearGradient>
<linearGradient id="paint38_linear_791_278" x1="655.075" y1="637.5" x2="655.075" y2="682.574" gradientUnits="userSpaceOnUse">
<stop stop-color="white"/>
<stop offset="1" stop-color="#999999"/>
</linearGradient>
<linearGradient id="paint39_linear_791_278" x1="1201" y1="640.5" x2="1201" y2="682" gradientUnits="userSpaceOnUse">
<stop stop-color="white"/>
<stop offset="1" stop-color="#999999"/>
</linearGradient>
<linearGradient id="paint40_linear_791_278" x1="1089" y1="640" x2="1089" y2="682" gradientUnits="userSpaceOnUse">
<stop stop-color="white"/>
<stop offset="1" stop-color="#999999"/>
</linearGradient>
<linearGradient id="paint41_linear_791_278" x1="1121.25" y1="640" x2="1121.25" y2="681.5" gradientUnits="userSpaceOnUse">
<stop stop-color="white"/>
<stop offset="1" stop-color="#999999"/>
</linearGradient>
<linearGradient id="paint42_linear_791_278" x1="1159.25" y1="625.125" x2="1159.25" y2="696.125" gradientUnits="userSpaceOnUse">
<stop stop-color="white"/>
<stop offset="1" stop-color="#999999"/>
</linearGradient>
<linearGradient id="paint43_linear_791_278" x1="873.008" y1="641" x2="873.008" y2="682" gradientUnits="userSpaceOnUse">
<stop stop-color="white"/>
<stop offset="1" stop-color="#999999"/>
</linearGradient>
<linearGradient id="paint44_linear_791_278" x1="948.008" y1="641" x2="948.008" y2="682" gradientUnits="userSpaceOnUse">
<stop stop-color="white"/>
<stop offset="1" stop-color="#999999"/>
</linearGradient>
<linearGradient id="paint45_linear_791_278" x1="1038.01" y1="641" x2="1038.01" y2="682" gradientUnits="userSpaceOnUse">
<stop stop-color="white"/>
<stop offset="1" stop-color="#999999"/>
</linearGradient>
<linearGradient id="paint46_linear_791_278" x1="993" y1="640.5" x2="993" y2="682" gradientUnits="userSpaceOnUse">
<stop stop-color="white"/>
<stop offset="1" stop-color="#999999"/>
</linearGradient>
<linearGradient id="paint47_linear_791_278" x1="911.937" y1="641" x2="911.937" y2="683.221" gradientUnits="userSpaceOnUse">
<stop stop-color="white"/>
<stop offset="1" stop-color="#999999"/>
</linearGradient>
<linearGradient id="paint48_linear_791_278" x1="1362.25" y1="640" x2="1362.25" y2="682.057" gradientUnits="userSpaceOnUse">
<stop stop-color="white"/>
<stop offset="1" stop-color="#999999"/>
</linearGradient>
<linearGradient id="paint49_linear_791_278" x1="1496" y1="641" x2="1496" y2="682.5" gradientUnits="userSpaceOnUse">
<stop stop-color="white"/>
<stop offset="1" stop-color="#999999"/>
</linearGradient>
<linearGradient id="paint50_linear_791_278" x1="1330.75" y1="640.5" x2="1330.75" y2="682" gradientUnits="userSpaceOnUse">
<stop stop-color="white"/>
<stop offset="1" stop-color="#999999"/>
</linearGradient>
<linearGradient id="paint51_linear_791_278" x1="1398" y1="640" x2="1398" y2="682" gradientUnits="userSpaceOnUse">
<stop stop-color="white"/>
<stop offset="1" stop-color="#999999"/>
</linearGradient>
<linearGradient id="paint52_linear_791_278" x1="1422.75" y1="641" x2="1422.75" y2="682" gradientUnits="userSpaceOnUse">
<stop stop-color="white"/>
<stop offset="1" stop-color="#999999"/>
</linearGradient>
<linearGradient id="paint53_linear_791_278" x1="1250.5" y1="626.711" x2="1250.5" y2="697.711" gradientUnits="userSpaceOnUse">
<stop stop-color="white"/>
<stop offset="1" stop-color="#999999"/>
</linearGradient>
<linearGradient id="paint54_linear_791_278" x1="1292.5" y1="639" x2="1292.5" y2="683" gradientUnits="userSpaceOnUse">
<stop stop-color="white"/>
<stop offset="1" stop-color="#999999"/>
</linearGradient>
<linearGradient id="paint55_linear_791_278" x1="1452.5" y1="639" x2="1452.5" y2="683" gradientUnits="userSpaceOnUse">
<stop stop-color="white"/>
<stop offset="1" stop-color="#999999"/>
</linearGradient>
<clipPath id="clip0_791_278">
<rect width="1720" height="850" fill="white"/>
</clipPath>
</defs>
</svg>
